<?xml version="1.0" encoding="UTF-8" standalone="no"?>
<svg
    width="128px"
    height="128px"
    viewBox="0 0 128 128"
    version="1.1"
    xmlns="http://www.w3.org/2000/svg"
>
  <path
      d="m57.927,127.632c-0.747,-0.201 -1.695,-0.54 -2.108,-0.753 -1.397,-0.722 -4.178,-3.292 -6.111,-5.648 -1.058,-1.29 -2.386,-2.894 -2.949,-3.567 -0.564,-0.672 -2.83,-2.691 -5.036,-4.486 -4.348,-3.538 -5.614,-4.992 -7.363,-8.462 -1.501,-2.977 -2.49,-6.104 -2.77,-8.759 -0.524,-4.971 -0.961,-6.348 -2.337,-7.382 -0.443,-0.332 -1.437,-1.184 -2.209,-1.892 -1.287,-1.18 -1.456,-1.471 -2.03,-3.478 -0.344,-1.204 -0.797,-3.059 -1.007,-4.122 -0.209,-1.063 -0.84,-3.961 -1.402,-6.44 -0.561,-2.48 -1.146,-5.415 -1.299,-6.524 -0.394,-2.855 -0.402,-3.558 0.048,-5.237 0.49,-1.827 4.345,4.527 3.825,0.714C67.625,-12.008 105.236,0.737 103.349,61.915c0.092,6.42 1.01,-5.201 2.924,-0.996 0.948,2.142 0.539,5.535 -1.256,10.436 -0.878,2.396 -1.825,5.664 -3.244,11.192 -1.274,4.962 -1.673,5.636 -4.415,7.464 -1.41,0.94 -1.952,2.135 -2.639,5.819 -0.985,5.286 -1.348,6.477 -2.89,9.492 -2.527,4.94 -3.965,6.617 -9.624,11.231 -1.554,1.267 -4.274,3.759 -6.046,5.539 -5.042,5.066 -6.943,5.912 -13.267,5.908 -2.298,-0.001 -4.099,-0.135 -4.964,-0.368z"
      strokeWidth="1.33333"
      fill="#8c6e67"/>
  <path
      d="m61.99,119.79c-1.682,-0.172 -3.476,-0.898 -4.111,-1.664 -0.188,-0.226 -0.296,-0.442 -0.24,-0.478 0.573,-0.379 2.283,-0.694 3.769,-0.694 2.328,0 2.684,-0.133 2.485,-0.929 -0.122,-0.484 -0.052,-0.619 0.324,-0.624 0.263,-0.004 0.934,-0.211 1.491,-0.461l1.012,-0.455 -1.364,-0.44c-0.75,-0.242 -1.638,-0.44 -1.974,-0.44 -1.238,0 -10.155,-2.561 -11.696,-3.359 -0.496,-0.257 -1.581,-0.526 -2.411,-0.599 -1.224,-0.107 -1.772,-0.016 -2.898,0.482 -1.246,0.551 -1.389,0.696 -1.389,1.407 0,0.436 0.341,1.544 0.757,2.462 0.416,0.918 0.67,1.669 0.565,1.669 -0.329,0 -4.19,-3.026 -6.28,-4.922 -2.102,-1.906 -3.399,-3.56 -3.685,-4.7 -0.348,-1.386 0.878,-0.575 2.831,1.873 1.047,1.313 1.605,1.793 2.225,1.917 1.25,0.25 1.463,-0.084 1.244,-1.947 -0.106,-0.897 -0.085,-1.805 0.046,-2.051 0.42,-0.785 0.281,-1.041 -0.477,-0.875 -0.807,0.177 -1.911,-0.439 -1.476,-0.824 0.142,-0.125 1.006,-0.375 1.922,-0.554 0.915,-0.179 1.982,-0.49 2.37,-0.691 1.441,-0.745 2.75,-0.284 1.891,0.665 -1.196,1.322 1.391,4.025 5.877,6.142 1.783,0.841 3.703,1.338 7.073,1.829 2.601,0.379 3.104,0.347 3.854,-0.242 0.36,-0.283 0.871,-0.515 1.136,-0.515 0.264,0 0.48,-0.105 0.48,-0.232 0,-0.44 -1.553,-0.773 -2.875,-0.616 -1.629,0.193 -2.013,-0.184 -1.835,-1.797 0.141,-1.281 -0.173,-1.689 -2.099,-2.725 -1.483,-0.798 -1.797,-1.327 -0.786,-1.327 0.779,0 2.443,0.716 2.443,1.051 0,0.559 0.981,0.717 2.19,0.353 0.683,-0.205 1.773,-0.378 2.424,-0.383 0.651,-0.005 1.473,-0.175 1.827,-0.377 0.39,-0.223 1.381,-0.372 2.512,-0.377 1.688,-0.008 1.868,0.04 1.868,0.497 0,0.278 -0.333,0.887 -0.74,1.353 -0.407,0.465 -0.979,1.294 -1.272,1.842 -0.292,0.548 -0.771,1.219 -1.063,1.491 -1.685,1.569 0.745,2.252 3.977,1.117 3.398,-1.193 6.054,-2.832 6.054,-3.734 0,-0.424 0.173,-0.514 0.988,-0.514 0.543,0 1.65,0.133 2.461,0.296 1.621,0.326 2.327,0.068 1.743,-0.635 -0.234,-0.282 -0.182,-0.51 0.236,-1.041 0.294,-0.374 0.695,-0.68 0.89,-0.68 0.195,0 0.856,-0.338 1.468,-0.751 0.612,-0.413 1.599,-0.946 2.193,-1.183 1.234,-0.494 3.327,-2.461 3.834,-3.604 0.475,-1.071 1.284,-2.05 1.46,-1.766 0.173,0.281 -0.407,3.781 -0.858,5.17 -0.427,1.316 -2.168,4.774 -3.28,6.514 -0.498,0.779 -1.671,2.211 -2.606,3.182 -1.564,1.623 -6.733,5.849 -9.158,7.486l-1.016,0.686 -0.327,-0.589c-0.69,-1.243 -0.438,-2.197 0.973,-3.689 1.429,-1.511 1.521,-2.179 0.3,-2.185 -1.167,-0.006 -1.82,-0.27 -1.957,-0.793 -0.072,-0.274 -0.353,-0.491 -0.636,-0.491 -0.486,0 -2.528,0.827 -4.436,1.797 -0.496,0.252 -1.64,0.826 -2.542,1.276 -0.902,0.45 -1.565,0.893 -1.473,0.985 0.496,0.496 5.324,-0.564 7.543,-1.657 0.99,-0.487 1.861,-0.291 1.364,0.308 -0.175,0.211 -0.535,0.383 -0.8,0.383 -0.265,0 -0.792,0.348 -1.17,0.773 -0.379,0.425 -0.835,0.773 -1.015,0.773 -0.179,0 -0.575,0.35 -0.879,0.777 -0.304,0.427 -0.863,0.933 -1.241,1.125 -1.585,0.801 -5.209,1.223 -8.03,0.934zM95.608,89.644c-0.088,-0.143 0.012,-1.157 0.223,-2.254 0.211,-1.097 0.518,-2.98 0.682,-4.184 0.164,-1.204 0.478,-2.827 0.698,-3.607 0.504,-1.786 0.619,-8.569 0.154,-9.036 -0.235,-0.237 -0.426,-0.108 -0.836,0.565 -0.292,0.479 -0.532,1.049 -0.532,1.265 -0.001,0.216 -0.185,0.657 -0.411,0.978 -0.303,0.433 -0.495,0.514 -0.739,0.312 -0.239,-0.198 -0.424,-0.158 -0.677,0.146 -0.311,0.374 -0.532,0.217 -2.058,-1.465 -1.685,-1.857 -1.715,-1.876 -2.032,-1.283 -0.177,0.331 -0.38,1.252 -0.452,2.048 -0.112,1.243 -0.054,1.516 0.414,1.938 0.299,0.27 0.544,0.653 0.544,0.851 0,0.198 0.246,0.9 0.546,1.559 0.406,0.892 0.487,1.366 0.317,1.854 -0.209,0.598 -0.374,0.662 -1.899,0.733 -0.918,0.043 -1.779,0.188 -1.914,0.322 -0.37,0.368 -1.43,0.292 -1.43,-0.102 0,-0.45 -0.832,-1.199 -1.331,-1.199 -0.214,0 -0.509,0.264 -0.656,0.587 -0.472,1.035 -1.699,2.307 -2.582,2.676 -1.017,0.425 -2.436,0.14 -3.509,-0.704l-0.675,-0.531 -0.301,0.66c-0.278,0.61 -1.474,1.171 -2.505,1.176 -0.285,0.001 -0.291,0.076 -0.033,0.388 0.19,0.229 0.755,0.387 1.384,0.388 0.585,0.001 1.831,0.074 2.769,0.163 1.431,0.135 1.688,0.231 1.592,0.596 -0.202,0.772 0.55,1.059 2.858,1.093 1.586,0.023 2.217,0.124 2.217,0.355 0,0.292 -2.527,1.402 -4.313,1.895 -0.484,0.134 -0.696,0.351 -0.665,0.683 0.115,1.22 -1.163,1.002 -2.567,-0.437 -0.537,-0.55 -1.12,-1.001 -1.295,-1.001 -0.582,0 -3.903,-1.722 -4.403,-2.283 -0.27,-0.303 -0.676,-0.552 -0.902,-0.552 -0.837,-0.002 -2.044,-1.023 -2.826,-2.39 -0.443,-0.774 -0.805,-1.555 -0.805,-1.736 0,-0.181 0.534,-0.9 1.187,-1.598l1.187,-1.269 -0.103,-1.815c-0.094,-1.66 -0.173,-1.878 -0.934,-2.557 -0.523,-0.467 -1.117,-0.743 -1.6,-0.743 -0.9,0 -0.882,0.048 -0.361,-0.996l0.408,-0.818 -1.889,-2.011c-1.039,-1.106 -2.165,-2.567 -2.503,-3.246 -0.616,-1.239 -1.622,-4.571 -1.6,-5.294 0.007,-0.213 0.011,-1.317 0.009,-2.455 -0.002,-1.138 0.184,-2.8 0.413,-3.693 0.229,-0.893 0.366,-1.674 0.305,-1.735 -0.061,-0.061 -1.49,-0.138 -3.176,-0.171 -2.873,-0.056 -3.161,-0.015 -4.583,0.651 -1.608,0.753 -4.506,2.792 -5.548,3.904 -0.344,0.366 -0.72,0.666 -0.837,0.666 -0.477,0 -0.173,-1.35 0.431,-1.91 0.354,-0.328 0.644,-0.686 0.644,-0.796 0,-0.11 -0.975,-0.12 -2.167,-0.023 -1.411,0.115 -2.225,0.082 -2.333,-0.092 -0.342,-0.553 -1.683,0.539 -3.147,2.563 -0.82,1.134 -1.579,2.061 -1.688,2.061 -0.108,0 -0.197,-0.409 -0.197,-0.908l0,-0.908l-0.708,0.371c-0.39,0.204 -1.114,0.801 -1.61,1.327 -1.181,1.252 -3.423,2.695 -4.188,2.695 -0.994,0 -3.301,2.776 -3.763,4.526 -0.466,1.768 -0.854,7.335 -0.752,10.802 0.083,2.831 0.245,3.914 1.051,7.004 1.261,4.835 1.246,5.485 -0.097,4.05 -0.344,-0.367 -1.156,-1.058 -1.805,-1.536 -1.224,-0.901 -1.856,-1.991 -2.267,-3.915 -0.201,-0.94 -0.174,-1.094 0.189,-1.087 0.233,0.005 0.648,0.178 0.924,0.386 1.247,0.943 1.813,-0.099 0.692,-1.275 -0.416,-0.437 -0.801,-1.026 -0.856,-1.309 -0.078,-0.406 -0.275,-0.501 -0.926,-0.45 -0.741,0.059 -0.827,-0.007 -0.827,-0.621 0,-0.377 -0.415,-2.088 -0.923,-3.801 -1.093,-3.689 -1.813,-7.05 -2.056,-9.604 -0.202,-2.123 0.003,-3.416 0.468,-2.951 0.542,0.542 0.649,0.304 0.302,-0.671 -0.389,-1.089 -0.449,-3.263 -0.135,-4.883 0.14,-0.724 0.044,-2.347 -0.289,-4.895 -0.466,-3.563 -0.473,-3.98 -0.102,-6.388 0.218,-1.417 0.471,-3.504 0.562,-4.637 0.244,-3.04 0.772,-5.309 1.883,-8.086 0.545,-1.362 1.248,-3.288 1.563,-4.28C26.988,24.287 29.644,20.088 32.996,16.483c0.856,-0.921 1.832,-2.08 2.169,-2.576 0.791,-1.166 3.012,-3.001 4.589,-3.792 1.324,-0.664 2.084,-1.101 9.09,-5.232 3.507,-2.067 5.043,-2.816 6.956,-3.389 3.305,-0.99 5.592,-1.49 6.834,-1.495 1.592,-0.006 9.596,2.22 10.894,3.03 2.063,1.288 2.755,1.601 3.533,1.602 0.425,0 1.713,0.166 2.862,0.368 1.149,0.202 2.714,0.37 3.478,0.373 1.296,0.005 2.297,0.315 5.472,1.691 0.545,0.236 2.004,1.056 3.242,1.822 2.165,1.339 2.629,1.819 4.057,4.195 0.281,0.467 1.545,1.917 2.808,3.22 3.03,3.126 3.779,4.521 3.817,7.11 0.027,1.839 0.095,2.061 1.114,3.647 0.607,0.944 1.247,2.363 1.454,3.22 0.203,0.842 0.555,2.223 0.782,3.067 0.227,0.844 0.412,2.434 0.412,3.532 0,1.098 0.13,2.869 0.288,3.935 0.39,2.619 -0.077,10.199 -0.833,13.54 -0.847,3.741 -0.883,4.916 -0.217,6.988 0.445,1.383 0.54,2.127 0.42,3.262 -0.211,1.991 -1.035,5.114 -1.864,7.072 -0.376,0.887 -0.954,2.577 -1.285,3.757 -0.331,1.18 -0.947,3.267 -1.367,4.637 -0.421,1.371 -0.9,3.241 -1.066,4.157 -0.398,2.206 -1.314,3.704 -2.929,4.791 -1.374,0.925 -1.828,1.061 -2.096,0.626zM94.787,32.133c0.628,0.97 1.456,-0.585 0.962,-1.805 -0.129,-0.318 -0.547,-1.622 -0.929,-2.897 -0.673,-2.244 -1.826,-4.683 -2.09,-4.42 -0.203,0.203 0.486,3.068 0.89,3.703 0.2,0.314 0.309,0.72 0.242,0.902 -0.067,0.182 -0.206,0.011 -0.31,-0.378 -0.207,-0.777 -0.581,-0.926 -0.812,-0.324 -0.208,0.542 -0.609,0.217 -0.609,-0.495 0,-1.522 -2.709,-6.253 -3.433,-5.996 -0.166,0.059 -0.273,0.472 -0.237,0.917 0.081,0.997 -0.332,1.07 -0.568,0.101 -0.248,-1.021 -1.401,-2.689 -1.721,-2.491 -0.303,0.187 -0.211,0.718 0.417,2.417 0.399,1.08 0.398,1.17 -0.022,1.477 -0.375,0.274 -0.399,0.434 -0.146,0.988 0.166,0.363 0.301,0.938 0.301,1.277 0,0.339 0.116,0.688 0.258,0.776 0.142,0.088 0.258,0.465 0.258,0.839 0,0.717 1.177,2.639 1.617,2.639 0.582,0 -0.049,-2.619 -0.963,-3.996 -0.501,-0.755 -0.91,-1.469 -0.909,-1.586 0.001,-0.118 0.278,-0.342 0.615,-0.498 1.211,-0.561 1.763,0.209 2.831,3.947 0.373,1.306 0.967,2.8 1.32,3.321 0.353,0.52 0.642,1.074 0.642,1.232 -0,0.157 0.435,0.653 0.966,1.101l0.966,0.814 0.129,-0.943c0.083,-0.605 0.203,-0.828 0.337,-0.621zM47.616,81.746c-0.908,-0.447 -2.114,-2.228 -2.114,-3.12 0,-0.298 -0.112,-0.611 -0.249,-0.696 -0.273,-0.169 -2.196,0.732 -2.454,1.15 -0.285,0.462 -1.914,0.279 -2.837,-0.318 -0.492,-0.319 -0.896,-0.669 -0.898,-0.778 -0.002,-0.109 0.295,-0.649 0.659,-1.2 0.458,-0.692 1.074,-1.178 1.997,-1.575 1.24,-0.534 1.684,-0.571 6.328,-0.533 3.642,0.03 5.176,0.136 5.668,0.392 0.37,0.193 1.338,0.657 2.151,1.031 1.984,0.913 3.546,2.543 3.546,3.699 0,1.712 -0.716,2.233 -2.053,1.493 -0.574,-0.318 -0.708,-0.292 -1.372,0.267 -1.221,1.027 -2.391,0.778 -2.541,-0.541 -0.115,-1.014 -1,-1.187 -1.576,-0.308 -0.467,0.713 -1.919,1.471 -2.801,1.462 -0.333,-0.003 -0.987,-0.194 -1.454,-0.424z"
      strokeWidth="1.33333"
      fill="#4b372d"/>
  <path
      d="m96.113,88.423c0.26,-1.807 1.137,-6.084 1.73,-8.437 0.716,-2.839 0.653,-10.389 -0.091,-10.849 -0.435,-0.269 -1.179,0.674 -1.763,2.236 -0.585,1.563 -0.852,1.833 -1.121,1.131 -0.122,-0.317 -0.261,-0.34 -0.686,-0.112 -0.465,0.249 -0.662,0.143 -1.539,-0.826 -1.097,-1.213 -1.206,-1.626 -0.632,-2.385 0.208,-0.275 0.372,-0.855 0.364,-1.288 -0.017,-0.931 -0.827,-3.044 -1.217,-3.174 -0.348,-0.116 -0.916,2.584 -0.763,3.627 0.065,0.444 -0.084,1.253 -0.339,1.837 -0.251,0.574 -0.603,1.936 -0.784,3.026 -0.308,1.86 -0.295,2.051 0.214,3.091 0.703,1.44 0.896,2.621 0.507,3.108 -0.179,0.225 -0.921,0.446 -1.763,0.526 -1.306,0.124 -1.508,0.074 -1.995,-0.485 -0.756,-0.869 -1.768,-0.828 -2.112,0.086 -0.454,1.207 -2.002,2.589 -3.109,2.776 -0.829,0.14 -1.241,0.031 -2.447,-0.65 -1.52,-0.858 -1.493,-0.862 -2.179,0.339 -0.22,0.386 -0.548,0.457 -1.859,0.403 -0.882,-0.036 -1.573,0.042 -1.551,0.176 0.086,0.503 0.976,1.609 1.614,2.005l0.664,0.412 -0.785,0.007c-0.581,0.005 -1.045,-0.26 -1.785,-1.017 -0.778,-0.796 -1.133,-0.99 -1.599,-0.873 -0.503,0.126 -0.661,0.003 -0.982,-0.765 -0.349,-0.835 -0.34,-1.012 0.103,-2.025 0.37,-0.848 0.887,-1.378 2.187,-2.247 0.936,-0.626 1.702,-1.277 1.702,-1.447 0,-0.17 0.232,-0.604 0.515,-0.964 0.619,-0.787 0.659,-1.218 0.112,-1.218 -0.941,0 -2.845,-1.081 -3.442,-1.955 -0.344,-0.503 -1.053,-1.133 -1.575,-1.399 -0.522,-0.267 -1.435,-0.92 -2.028,-1.453 -1.001,-0.899 -1.04,-0.982 -0.548,-1.165 0.292,-0.108 0.827,-0.084 1.189,0.054 0.362,0.138 0.709,0.25 0.77,0.25 0.294,0 0.051,-1.429 -0.513,-3.012 -0.532,-1.493 -0.652,-2.438 -0.808,-6.337 -0.19,-4.755 -0.374,-5.328 -1.091,-3.389 -1.211,3.273 -1.159,8.544 0.107,10.994 0.203,0.393 0.279,0.713 0.169,0.713 -0.333,-0.001 -2.647,-3.806 -2.647,-4.353 0,-0.281 -0.126,-0.589 -0.281,-0.684 -0.599,-0.37 0.899,-9.258 1.715,-10.174 0.303,-0.341 0.29,-0.537 -0.088,-1.344 -0.244,-0.52 -0.56,-0.943 -0.701,-0.94 -0.142,0.003 -0.634,0.475 -1.094,1.049 -0.835,1.042 -0.836,1.042 -0.681,0.268 0.209,-1.045 -0.377,-1.331 -2.218,-1.082 -0.779,0.105 -2.064,0.134 -2.856,0.065 -1.773,-0.156 -1.526,-0.279 -7.449,3.72 -0.354,0.239 -0.963,0.725 -1.353,1.079 -0.39,0.354 -0.708,0.503 -0.708,0.33 0,-0.173 0.178,-0.382 0.395,-0.466 0.217,-0.083 0.753,-0.672 1.19,-1.307l0.795,-1.156 -0.868,0.206c-1.241,0.295 -2.741,0.157 -3.467,-0.319 -1.085,-0.711 -2.311,0.14 -5.576,3.872l-0.875,1 0.109,-0.936c0.179,-1.533 -0.648,-1.218 -3.296,1.254 -1.29,1.204 -2.441,2.19 -2.558,2.19 -0.117,0 -0.357,-0.174 -0.533,-0.386 -0.516,-0.622 -1.008,-0.45 -1.468,0.513 -0.236,0.494 -0.624,0.961 -0.863,1.037 -0.538,0.171 -2.226,2.971 -2.545,4.223 -0.13,0.509 -0.308,1.796 -0.396,2.858 -0.088,1.063 -0.281,2.715 -0.43,3.671 -0.225,1.448 -0.337,1.702 -0.667,1.517 -0.218,-0.122 -0.901,-0.165 -1.517,-0.096 -1.731,0.195 -2.279,-0.313 -3.059,-2.838 -0.361,-1.169 -0.814,-3.282 -1.007,-4.697 -0.487,-3.571 -0.288,-3.934 1.201,-2.193 1.426,1.666 1.636,1.207 0.555,-1.216 -1.302,-2.919 -1.472,-3.677 -1.309,-5.808 0.085,-1.1 0.03,-2.955 -0.122,-4.122 -0.152,-1.167 -0.362,-2.817 -0.468,-3.667 -0.131,-1.049 -0.038,-2.745 0.289,-5.281 0.976,-7.575 1.207,-8.712 2.376,-11.676 0.625,-1.584 1.273,-3.402 1.439,-4.039 0.401,-1.534 2.623,-5.666 4.088,-7.6 0.644,-0.85 1.93,-2.336 2.859,-3.302 0.928,-0.966 2.061,-2.311 2.517,-2.991 0.995,-1.481 2.048,-2.317 4.609,-3.657 1.058,-0.554 2.145,-1.146 2.417,-1.315 0.272,-0.17 0.573,-0.229 0.669,-0.133 0.282,0.282 -0.567,1.375 -1.53,1.971 -1.019,0.63 -1.175,0.929 -0.951,1.824 0.155,0.618 0.214,0.584 1.655,-0.951 0.822,-0.876 1.741,-1.628 2.041,-1.671 0.301,-0.044 0.818,-0.485 1.149,-0.981 1.643,-2.461 5.621,-5.686 8.304,-6.732 2.081,-0.811 5.545,-1.754 7.528,-2.049 2.096,-0.312 1.549,-0.418 10.248,1.998 0.779,0.217 1.985,0.811 2.68,1.321 1.099,0.806 1.585,0.972 3.735,1.272 1.36,0.19 3.574,0.441 4.92,0.558 2.758,0.24 5.183,1.151 8.834,3.32 2.118,1.258 2.82,1.991 4.308,4.499 0.49,0.826 1.763,2.283 2.876,3.293 1.568,1.423 2.192,2.21 2.907,3.671 0.908,1.854 0.91,1.864 0.611,3.627l-0.3,1.767 0.913,0.809c2.467,2.186 3.174,5.298 3.699,16.272 0.19,3.981 -0.163,9.237 -0.814,12.102 -0.763,3.359 -0.802,3.697 -0.579,4.94 0.954,5.301 0.758,7.294 -1.211,12.332 -0.623,1.593 -1.361,3.691 -1.641,4.662 -0.874,3.036 -1.138,3.815 -1.425,4.214 -0.848,1.176 -1.22,2.118 -0.945,2.393 0.89,0.89 -0.174,3.508 -2.116,5.207 -1.751,1.532 -2.088,1.52 -1.86,-0.065zM45.363,44.064c0.212,-0.344 1.684,-1.047 2.191,-1.047 0.546,0 1.198,-0.65 2.328,-2.322 0.496,-0.734 1.453,-2.048 2.126,-2.92 0.673,-0.872 1.531,-2.049 1.906,-2.616 0.791,-1.195 1.118,-1.46 1.59,-1.286 0.188,0.069 0.52,-0.054 0.739,-0.273 0.219,-0.219 0.447,-0.349 0.507,-0.289 0.135,0.135 -0.888,1.926 -1.498,2.621 -0.249,0.283 -0.863,1.067 -1.365,1.741 -1.375,1.845 -1.179,2.301 0.436,1.017 0.498,-0.396 1.369,-0.929 1.937,-1.185 0.743,-0.335 0.999,-0.589 0.916,-0.908 -0.078,-0.298 0.219,-0.675 0.907,-1.151 0.562,-0.39 1.369,-1.078 1.792,-1.529 0.935,-0.996 1.837,-1.801 3.524,-3.148 0.704,-0.562 1.541,-1.311 1.86,-1.666 0.329,-0.366 0.583,-0.498 0.587,-0.307 0.012,0.482 0.523,0.102 0.523,-0.388 0,-0.224 0.203,-0.565 0.451,-0.758 0.415,-0.323 0.418,-0.376 0.03,-0.679 -0.231,-0.181 -0.465,-0.556 -0.518,-0.834 -0.178,-0.924 -0.845,-0.677 -1.743,0.645 -0.483,0.712 -0.918,1.254 -0.967,1.206 -0.048,-0.048 0.149,-0.774 0.438,-1.612 0.501,-1.45 0.505,-2.683 0.009,-2.683 -0.501,0 -2.34,1.407 -2.497,1.911 -0.092,0.295 -0.636,1.099 -1.209,1.786 -0.886,1.063 -0.996,1.322 -0.74,1.732 0.254,0.406 0.173,0.628 -0.509,1.406 -0.609,0.694 -0.866,0.839 -1.032,0.586 -0.166,-0.254 -0.433,-0.11 -1.084,0.586 -0.475,0.508 -0.921,1.087 -0.992,1.288 -0.071,0.201 -0.208,0.292 -0.304,0.203 -0.096,-0.089 0.021,-0.61 0.26,-1.159 0.239,-0.549 0.575,-1.346 0.745,-1.771 0.431,-1.073 1.612,-3.654 2.254,-4.929l0.537,-1.065 -0.541,-0.688 -0.541,-0.688 -1.081,1.366c-0.85,1.075 -0.991,1.384 -0.661,1.449 0.527,0.105 0.527,0.114 -0.101,1.344 -0.624,1.223 -1.158,1.364 -0.935,0.247 0.188,-0.942 -0.26,-1.037 -0.605,-0.129 -0.135,0.354 -0.318,0.644 -0.408,0.644 -0.09,0 -0.096,-0.174 -0.014,-0.386 0.298,-0.777 -0.564,-0.363 -1.611,0.773 -1.179,1.279 -1.419,1.373 -1.819,0.708 -0.25,-0.415 -0.317,-0.399 -0.85,0.202 -0.603,0.679 -1.52,1.198 -2.355,1.331 -0.547,0.087 -0.558,0.105 -1.706,2.783 -1.184,2.762 -2.388,3.75 -2.12,1.739 0.133,-0.998 0.108,-1.064 -0.282,-0.741 -0.235,0.194 -0.428,0.512 -0.428,0.705 0,0.193 -0.348,0.916 -0.773,1.607 -0.425,0.691 -0.773,1.388 -0.773,1.55 0,0.545 0.499,0.298 0.878,-0.434 0.575,-1.112 1.02,-1.397 1.352,-0.865 0.217,0.347 0.065,0.886 -0.704,2.499 -0.539,1.131 -0.987,2.14 -0.995,2.242 -0.04,0.493 0.837,-0.243 1.782,-1.495 0.579,-0.767 1.167,-1.395 1.307,-1.395 0.313,0 0.079,1.06 -0.541,2.447 -0.332,0.744 -0.384,1.121 -0.186,1.36 0.195,0.235 0.189,0.519 -0.021,0.979 -0.163,0.357 -0.295,0.701 -0.295,0.765 0,0.22 0.742,0.117 0.892,-0.125zM93.733,40.982c0.438,0.538 0.485,0.551 0.363,0.103 -0.077,-0.283 -0.272,-1.037 -0.433,-1.675 -0.288,-1.138 -0.645,-2.036 -1.751,-4.408 -0.305,-0.653 -0.629,-1.754 -0.722,-2.447 -0.099,-0.746 -0.415,-1.557 -0.773,-1.988 -0.341,-0.41 -0.605,-1.068 -0.605,-1.507 0,-0.428 -0.167,-1.144 -0.37,-1.59 -0.887,-1.945 -1.11,-2.69 -0.904,-3.024 0.119,-0.192 0.28,-0.286 0.357,-0.208 0.229,0.229 1.948,5.353 1.948,5.806 0,0.767 1.558,3.183 2.052,3.183 0.615,0 0.782,0.496 0.782,2.321 0,1.537 0.396,2.316 1.178,2.316 0.415,0 0.442,-0.545 0.118,-2.447 -0.236,-1.39 0.153,-2.447 0.9,-2.447 0.678,0 0.433,-1.912 -0.669,-5.221 -0.577,-1.733 -1.389,-3.683 -1.803,-4.333 -0.414,-0.65 -0.754,-1.29 -0.754,-1.422 0,-0.331 -1.308,-2.228 -1.443,-2.093 -0.06,0.06 0.188,0.782 0.551,1.603 0.414,0.935 0.632,1.841 0.583,2.423l-0.078,0.929 -0.917,-1.675C90.839,22.26 90.281,20.811 90.103,19.961c-0.542,-2.594 -0.647,-2.834 -1.241,-2.834 -0.302,0 -0.637,-0.087 -0.744,-0.193 -0.675,-0.669 -0.834,0.278 -0.207,1.234 0.346,0.528 0.36,0.705 0.081,1.041 -0.301,0.363 -0.385,0.342 -0.798,-0.195 -0.254,-0.33 -0.464,-0.732 -0.467,-0.893 -0.003,-0.161 -0.22,-0.558 -0.482,-0.882l-0.476,-0.588 -0.171,1.292c-0.135,1.018 -0.057,1.551 0.369,2.513 0.297,0.672 0.49,1.271 0.43,1.332 -0.061,0.061 -0.59,-0.557 -1.175,-1.374 -0.585,-0.817 -1.534,-2.006 -2.109,-2.644l-1.044,-1.159 0.167,1.288c0.138,1.06 0.107,1.231 -0.172,0.966 -0.464,-0.44 -1.009,-0.405 -1.009,0.064 0,0.511 -0.176,0.488 -0.96,-0.129 -0.71,-0.558 -1.358,-0.676 -1.358,-0.247 0,0.148 0.496,0.814 1.102,1.481 2.933,3.228 4.068,4.737 5.08,6.751 1.372,2.732 3.198,5.554 3.724,5.756 0.219,0.084 0.398,0.093 0.398,0.019 0,-0.255 -0.726,-1.534 -1.655,-2.913 -0.514,-0.764 -0.88,-1.444 -0.812,-1.511 0.067,-0.067 0.725,0.441 1.462,1.131 0.922,0.863 1.615,1.845 2.226,3.155 0.923,1.979 1.659,4.386 1.446,4.731 -0.068,0.11 -0.701,-0.432 -1.406,-1.204 -0.81,-0.886 -1.531,-1.433 -1.956,-1.484 -0.555,-0.066 -0.768,-0.332 -1.212,-1.504 -0.713,-1.884 -1.843,-3.819 -3.604,-6.175 -0.794,-1.062 -1.444,-2.021 -1.444,-2.131 0,-0.11 -0.307,-0.663 -0.682,-1.23 -0.493,-0.745 -0.808,-0.99 -1.139,-0.885 -0.301,0.096 -0.508,-0.017 -0.608,-0.331 -0.194,-0.612 -2.434,-2.755 -2.652,-2.537 -0.091,0.091 0.03,0.573 0.268,1.072 0.238,0.499 0.433,1.017 0.433,1.152 0,0.135 0.339,0.797 0.754,1.473 0.415,0.675 1.157,2.23 1.651,3.455 0.858,2.131 1.943,3.684 4.926,7.047 0.811,0.914 0.886,0.952 0.666,0.331 -0.137,-0.385 -0.484,-1.163 -0.773,-1.729 -0.622,-1.219 -0.633,-1.307 -0.168,-1.307 0.196,0 0.552,0.297 0.79,0.661 0.585,0.893 1.061,1.475 2.653,3.243 0.744,0.826 1.353,1.634 1.353,1.795 0,0.161 0.564,1.06 1.254,1.999 0.69,0.938 1.405,1.996 1.589,2.349l0.335,0.643 0.249,-0.746 0.249,-0.746zM38.031,38.18c0,-0.217 0.435,-0.819 0.966,-1.338 1.184,-1.156 2.302,-2.684 3.306,-4.516 0.834,-1.521 1.634,-2.16 2.525,-2.016 0.663,0.108 1.079,-0.062 2.226,-0.906 0.776,-0.571 1.932,-1.423 2.57,-1.892 0.638,-0.469 1.691,-1.344 2.34,-1.943 0.65,-0.6 1.606,-1.268 2.125,-1.485 0.519,-0.217 0.944,-0.546 0.944,-0.73 0,-0.185 0.436,-0.58 0.968,-0.88 0.826,-0.464 2.123,-1.828 2.123,-2.232 0,-0.36 -1.57,0.502 -2.558,1.405 -0.622,0.569 -1.257,0.987 -1.412,0.929 -0.354,-0.131 -1.777,0.702 -3.097,1.813 -0.557,0.469 -1.118,0.852 -1.246,0.852 -0.129,0 -1.18,0.872 -2.337,1.938 -2.134,1.967 -2.724,2.08 -1.831,0.353 0.237,-0.459 0.472,-1.192 0.521,-1.627 0.049,-0.436 0.165,-1.053 0.258,-1.372 0.125,-0.432 0.062,-0.58 -0.248,-0.58 -0.53,0 -0.525,-0.044 0.124,-1.145 0.698,-1.183 0.286,-1.192 -0.479,-0.012 -0.7,1.081 -1.09,1.148 -1.101,0.19L44.713,22.279l-0.624,0.708c-0.343,0.39 -0.687,0.708 -0.765,0.708 -0.315,0 -0.11,-0.743 0.374,-1.358 0.283,-0.36 0.515,-0.826 0.515,-1.035 0,-0.637 -0.948,-0.695 -1.47,-0.089 -1.242,1.439 -2.127,2.74 -2.28,3.35 -0.093,0.369 -0.794,1.513 -1.558,2.542 -0.765,1.029 -1.39,2.004 -1.39,2.166 0,0.162 -0.522,1.003 -1.159,1.869 -0.638,0.866 -1.159,1.684 -1.159,1.817 0,0.133 -0.252,0.419 -0.561,0.635 -0.595,0.416 -1.375,1.955 -0.991,1.955 0.235,0 1.163,-1.084 1.39,-1.623 0.088,-0.21 0.256,-0.153 0.524,0.18 0.335,0.415 0.457,0.437 0.808,0.146 0.227,-0.189 0.635,-0.778 0.906,-1.309 0.51,-1 0.941,-1.418 1.198,-1.162 0.082,0.082 0.036,0.296 -0.101,0.477 -0.137,0.181 -0.463,1.082 -0.724,2.003 -0.261,0.921 -0.729,2.022 -1.039,2.447 -0.31,0.425 -0.649,1.044 -0.754,1.375 -0.172,0.543 -0.14,0.575 0.332,0.322 0.777,-0.416 1.072,-0.343 1.072,0.267 0,0.457 0.064,0.494 0.386,0.226 0.213,-0.176 0.386,-0.498 0.386,-0.715zM47.058,81.243c-0.953,-0.802 -1.556,-1.884 -1.556,-2.79 0,-0.84 -0.429,-0.84 -2.091,0.002 -1.308,0.663 -2.552,0.755 -2.733,0.203 -0.054,-0.164 0.604,-0.683 1.461,-1.154 0.857,-0.471 1.559,-0.961 1.559,-1.089 0,-0.247 -1.885,-0.089 -2.641,0.221 -0.936,0.384 -0.414,-0.395 0.644,-0.96 0.992,-0.53 1.423,-0.583 4.573,-0.56 1.913,0.014 3.954,0.159 4.536,0.322 2.014,0.565 4.996,3.432 4.996,4.803 0,0.766 -1.27,1.388 -1.606,0.787 -0.285,-0.509 -1.261,-1.428 -1.516,-1.428 -0.105,0 -0.44,0.35 -0.745,0.777 -1.178,1.655 -3.463,2.06 -4.881,0.867z"
      strokeWidth="1.33333"
      fill="#342f29"/>
</svg>
